# xmcd
#
# Track frame offsets:
#	150
#	10425
#	26960
#	36235
#	47485
#	65410
#	78910
#	88085
#	103810
#	124885
#	137435
#	153735
#
# Disc length: 2212 seconds
#
# Revision: 1
# Processed by: cddbd v1.5.2PL0 Copyright (c) Steve Scherf et al.
# Submitted via: audiograbber 1.83.01
#
DISCID=a008a20c
DTITLE=Children Of Grindelwald - Country Roads
DYEAR=1990
DGENRE=Country
TTITLE0=Jambalaya
TTITLE1=Lucille
TTITLE2=I Saw The Light
TTITLE3=Indian Dream
TTITLE4=City Of New Orleans
TTITLE5=Ghost Riders In The Sky
TTITLE6=On The Road Again
TTITLE7=Amazing Grace
TTITLE8=Back Home Again
TTITLE9=Will The Circle Be Unbroken
TTITLE10=Leaving On A Jet Plane
TTITLE11=Country Roads
EXTD=
EXTT0=
EXTT1=
EXTT2=
EXTT3=
EXTT4=
EXTT5=
EXTT6=
EXTT7=
EXTT8=
EXTT9=
EXTT10=
EXTT11=
PLAYORDER=
